<svg width="1200" height="630" viewBox="0 0 1200 630" fill="none" xmlns="http://www.w3.org/2000/svg">
  <defs>
    <linearGradient id="g1" x1="0" y1="0" x2="1" y2="1">
      <stop offset="0" stop-color="#0B1530"/>
      <stop offset="1" stop-color="#0E1E44"/>
    </linearGradient>
    <linearGradient id="g2" x1="0" y1="0" x2="1" y2="1">
      <stop offset="0" stop-color="#00D0FF"/>
      <stop offset="1" stop-color="#00A6D6"/>
    </linearGradient>
  </defs>
  <rect width="1200" height="630" fill="url(#g1)"/>
  <g transform="translate(80,100)">
    <rect x="0" y="0" width="1040" height="360" rx="18" fill="#101A3A" stroke="#1B2B5C"/>
    <rect x="30" y="40" width="360" height="22" rx="6" fill="#14285A"/>
    <rect x="30" y="80" width="560" height="16" rx="6" fill="#14285A"/>
    <rect x="30" y="116" width="520" height="16" rx="6" fill="#14285A"/>
    <rect x="30" y="172" width="340" height="160" rx="12" fill="#0A173B" stroke="#1B2B5C"/>
    <rect x="400" y="172" width="340" height="160" rx="12" fill="#0A173B" stroke="#1B2B5C"/>
    <rect x="770" y="172" width="240" height="160" rx="12" fill="#0A173B" stroke="#1B2B5C"/>
  </g>
  <g transform="translate(80,500)">
    <rect x="0" y="0" width="280" height="24" rx="12" fill="url(#g2)"/>
  </g>
  <g transform="translate(860,32)">
    <rect x="0" y="0" width="260" height="60" rx="12" fill="#0B1530" stroke="url(#g2)"/>
    <text x="130" y="38" text-anchor="middle" font-family="Poppins, Arial" font-size="22" font-weight="800" fill="#E6ECFF">[Your Agency Name]</text>
  </g>
</svg>





